P3
# horisontal.ppm
256 16
255
0 0 255
0 3 253
0 6 251
0 9 249
0 12 247
0 15 245
0 18 243
0 21 241
0 25 239
0 28 237
0 31 235
0 34 233
0 37 231
0 40 229
0 43 227
0 46 225
1 49 224
1 53 222
1 56 220
1 59 218
1 62 216
1 65 214
1 68 212
2 71 211
2 74 209
2 77 207
2 80 205
2 83 203
3 86 202
3 89 200
3 92 198
3 95 196
4 97 195
4 100 193
4 103 191
4 106 189
5 109 188
5 112 186
5 115 184
5 117 182
6 120 181
6 123 179
6 126 177
7 128 176
7 131 174
7 134 172
8 136 171
8 139 169
9 142 168
9 144 166
9 147 164
10 149 163
10 152 161
11 154 160
11 157 158
11 159 156
12 162 155
12 164 153
13 167 152
13 169 150
14 171 149
14 174 147
15 176 146
15 178 144
16 180 143
16 183 141
17 185 140
17 187 138
18 189 137
18 191 135
19 193 134
19 195 132
20 197 131
20 199 129
21 201 128
22 203 127
22 205 125
23 207 124
23 209 122
24 210 121
25 212 120
25 214 118
26 215 117
27 217 116
27 219 114
28 220 113
29 222 112
29 223 110
30 225 109
31 226 108
31 228 106
32 229 105
33 230 104
33 232 102
34 233 101
35 234 100
36 236 99
36 237 97
37 238 96
38 239 95
39 240 94
40 241 93
40 242 91
41 243 90
42 244 89
43 245 88
44 246 87
44 246 85
45 247 84
46 248 83
47 249 82
48 249 81
49 250 80
50 250 79
50 251 77
51 251 76
52 252 75
53 252 74
54 253 73
55 253 72
56 253 71
57 254 70
58 254 69
59 254 68
60 254 67
61 254 66
62 254 65
63 254 64
64 254 63
65 254 62
66 254 61
67 254 60
68 254 59
69 254 58
70 254 57
71 253 56
72 253 55
73 253 54
74 252 53
75 252 52
76 251 51
77 251 50
79 250 50
80 250 49
81 249 48
82 249 47
83 248 46
84 247 45
85 246 44
87 246 44
88 245 43
89 244 42
90 243 41
91 242 40
93 241 40
94 240 39
95 239 38
96 238 37
97 237 36
99 236 36
100 234 35
101 233 34
102 232 33
104 230 33
105 229 32
106 228 31
108 226 31
109 225 30
110 223 29
112 222 29
113 220 28
114 219 27
116 217 27
117 215 26
118 214 25
120 212 25
121 210 24
122 209 23
124 207 23
125 205 22
127 203 22
128 201 21
129 199 20
131 197 20
132 195 19
134 193 19
135 191 18
137 189 18
138 187 17
140 185 17
141 183 16
143 180 16
144 178 15
146 176 15
147 174 14
149 171 14
150 169 13
152 167 13
153 164 12
155 162 12
156 159 11
158 157 11
160 154 11
161 152 10
163 149 10
164 147 9
166 144 9
168 142 9
169 139 8
171 136 8
172 134 7
174 131 7
176 128 7
177 126 6
179 123 6
181 120 6
182 117 5
184 115 5
186 112 5
188 109 5
189 106 4
191 103 4
193 100 4
195 97 4
196 95 3
198 92 3
200 89 3
202 86 3
203 83 2
205 80 2
207 77 2
209 74 2
211 71 2
212 68 1
214 65 1
216 62 1
218 59 1
220 56 1
222 53 1
224 49 1
225 46 0
227 43 0
229 40 0
231 37 0
233 34 0
235 31 0
237 28 0
239 25 0
241 21 0
243 18 0
245 15 0
247 12 0
249 9 0
251 6 0
253 3 0
255 0 0
0 0 255
0 3 253
0 6 251
0 9 249
0 12 247
0 15 245
0 18 243
0 21 241
0 25 239
0 28 237
0 31 235
0 34 233
0 37 231
0 40 229
0 43 227
0 46 225
1 49 224
1 53 222
1 56 220
1 59 218
1 62 216
1 65 214
1 68 212
2 71 211
2 74 209
2 77 207
2 80 205
2 83 203
3 86 202
3 89 200
3 92 198
3 95 196
4 97 195
4 100 193
4 103 191
4 106 189
5 109 188
5 112 186
5 115 184
5 117 182
6 120 181
6 123 179
6 126 177
7 128 176
7 131 174
7 134 172
8 136 171
8 139 169
9 142 168
9 144 166
9 147 164
10 149 163
10 152 161
11 154 160
11 157 158
11 159 156
12 162 155
12 164 153
13 167 152
13 169 150
14 171 149
14 174 147
15 176 146
15 178 144
16 180 143
16 183 141
17 185 140
17 187 138
18 189 137
18 191 135
19 193 134
19 195 132
20 197 131
20 199 129
21 201 128
22 203 127
22 205 125
23 207 124
23 209 122
24 210 121
25 212 120
25 214 118
26 215 117
27 217 116
27 219 114
28 220 113
29 222 112
29 223 110
30 225 109
31 226 108
31 228 106
32 229 105
33 230 104
33 232 102
34 233 101
35 234 100
36 236 99
36 237 97
37 238 96
38 239 95
39 240 94
40 241 93
40 242 91
41 243 90
42 244 89
43 245 88
44 246 87
44 246 85
45 247 84
46 248 83
47 249 82
48 249 81
49 250 80
50 250 79
50 251 77
51 251 76
52 252 75
53 252 74
54 253 73
55 253 72
56 253 71
57 254 70
58 254 69
59 254 68
60 254 67
61 254 66
62 254 65
63 254 64
64 254 63
65 254 62
66 254 61
67 254 60
68 254 59
69 254 58
70 254 57
71 253 56
72 253 55
73 253 54
74 252 53
75 252 52
76 251 51
77 251 50
79 250 50
80 250 49
81 249 48
82 249 47
83 248 46
84 247 45
85 246 44
87 246 44
88 245 43
89 244 42
90 243 41
91 242 40
93 241 40
94 240 39
95 239 38
96 238 37
97 237 36
99 236 36
100 234 35
101 233 34
102 232 33
104 230 33
105 229 32
106 228 31
108 226 31
109 225 30
110 223 29
112 222 29
113 220 28
114 219 27
116 217 27
117 215 26
118 214 25
120 212 25
121 210 24
122 209 23
124 207 23
125 205 22
127 203 22
128 201 21
129 199 20
131 197 20
132 195 19
134 193 19
135 191 18
137 189 18
138 187 17
140 185 17
141 183 16
143 180 16
144 178 15
146 176 15
147 174 14
149 171 14
150 169 13
152 167 13
153 164 12
155 162 12
156 159 11
158 157 11
160 154 11
161 152 10
163 149 10
164 147 9
166 144 9
168 142 9
169 139 8
171 136 8
172 134 7
174 131 7
176 128 7
177 126 6
179 123 6
181 120 6
182 117 5
184 115 5
186 112 5
188 109 5
189 106 4
191 103 4
193 100 4
195 97 4
196 95 3
198 92 3
200 89 3
202 86 3
203 83 2
205 80 2
207 77 2
209 74 2
211 71 2
212 68 1
214 65 1
216 62 1
218 59 1
220 56 1
222 53 1
224 49 1
225 46 0
227 43 0
229 40 0
231 37 0
233 34 0
235 31 0
237 28 0
239 25 0
241 21 0
243 18 0
245 15 0
247 12 0
249 9 0
251 6 0
253 3 0
255 0 0
0 0 255
0 3 253
0 6 251
0 9 249
0 12 247
0 15 245
0 18 243
0 21 241
0 25 239
0 28 237
0 31 235
0 34 233
0 37 231
0 40 229
0 43 227
0 46 225
1 49 224
1 53 222
1 56 220
1 59 218
1 62 216
1 65 214
1 68 212
2 71 211
2 74 209
2 77 207
2 80 205
2 83 203
3 86 202
3 89 200
3 92 198
3 95 196
4 97 195
4 100 193
4 103 191
4 106 189
5 109 188
5 112 186
5 115 184
5 117 182
6 120 181
6 123 179
6 126 177
7 128 176
7 131 174
7 134 172
8 136 171
8 139 169
9 142 168
9 144 166
9 147 164
10 149 163
10 152 161
11 154 160
11 157 158
11 159 156
12 162 155
12 164 153
13 167 152
13 169 150
14 171 149
14 174 147
15 176 146
15 178 144
16 180 143
16 183 141
17 185 140
17 187 138
18 189 137
18 191 135
19 193 134
19 195 132
20 197 131
20 199 129
21 201 128
22 203 127
22 205 125
23 207 124
23 209 122
24 210 121
25 212 120
25 214 118
26 215 117
27 217 116
27 219 114
28 220 113
29 222 112
29 223 110
30 225 109
31 226 108
31 228 106
32 229 105
33 230 104
33 232 102
34 233 101
35 234 100
36 236 99
36 237 97
37 238 96
38 239 95
39 240 94
40 241 93
40 242 91
41 243 90
42 244 89
43 245 88
44 246 87
44 246 85
45 247 84
46 248 83
47 249 82
48 249 81
49 250 80
50 250 79
50 251 77
51 251 76
52 252 75
53 252 74
54 253 73
55 253 72
56 253 71
57 254 70
58 254 69
59 254 68
60 254 67
61 254 66
62 254 65
63 254 64
64 254 63
65 254 62
66 254 61
67 254 60
68 254 59
69 254 58
70 254 57
71 253 56
72 253 55
73 253 54
74 252 53
75 252 52
76 251 51
77 251 50
79 250 50
80 250 49
81 249 48
82 249 47
83 248 46
84 247 45
85 246 44
87 246 44
88 245 43
89 244 42
90 243 41
91 242 40
93 241 40
94 240 39
95 239 38
96 238 37
97 237 36
99 236 36
100 234 35
101 233 34
102 232 33
104 230 33
105 229 32
106 228 31
108 226 31
109 225 30
110 223 29
112 222 29
113 220 28
114 219 27
116 217 27
117 215 26
118 214 25
120 212 25
121 210 24
122 209 23
124 207 23
125 205 22
127 203 22
128 201 21
129 199 20
131 197 20
132 195 19
134 193 19
135 191 18
137 189 18
138 187 17
140 185 17
141 183 16
143 180 16
144 178 15
146 176 15
147 174 14
149 171 14
150 169 13
152 167 13
153 164 12
155 162 12
156 159 11
158 157 11
160 154 11
161 152 10
163 149 10
164 147 9
166 144 9
168 142 9
169 139 8
171 136 8
172 134 7
174 131 7
176 128 7
177 126 6
179 123 6
181 120 6
182 117 5
184 115 5
186 112 5
188 109 5
189 106 4
191 103 4
193 100 4
195 97 4
196 95 3
198 92 3
200 89 3
202 86 3
203 83 2
205 80 2
207 77 2
209 74 2
211 71 2
212 68 1
214 65 1
216 62 1
218 59 1
220 56 1
222 53 1
224 49 1
225 46 0
227 43 0
229 40 0
231 37 0
233 34 0
235 31 0
237 28 0
239 25 0
241 21 0
243 18 0
245 15 0
247 12 0
249 9 0
251 6 0
253 3 0
255 0 0
0 0 255
0 3 253
0 6 251
0 9 249
0 12 247
0 15 245
0 18 243
0 21 241
0 25 239
0 28 237
0 31 235
0 34 233
0 37 231
0 40 229
0 43 227
0 46 225
1 49 224
1 53 222
1 56 220
1 59 218
1 62 216
1 65 214
1 68 212
2 71 211
2 74 209
2 77 207
2 80 205
2 83 203
3 86 202
3 89 200
3 92 198
3 95 196
4 97 195
4 100 193
4 103 191
4 106 189
5 109 188
5 112 186
5 115 184
5 117 182
6 120 181
6 123 179
6 126 177
7 128 176
7 131 174
7 134 172
8 136 171
8 139 169
9 142 168
9 144 166
9 147 164
10 149 163
10 152 161
11 154 160
11 157 158
11 159 156
12 162 155
12 164 153
13 167 152
13 169 150
14 171 149
14 174 147
15 176 146
15 178 144
16 180 143
16 183 141
17 185 140
17 187 138
18 189 137
18 191 135
19 193 134
19 195 132
20 197 131
20 199 129
21 201 128
22 203 127
22 205 125
23 207 124
23 209 122
24 210 121
25 212 120
25 214 118
26 215 117
27 217 116
27 219 114
28 220 113
29 222 112
29 223 110
30 225 109
31 226 108
31 228 106
32 229 105
33 230 104
33 232 102
34 233 101
35 234 100
36 236 99
36 237 97
37 238 96
38 239 95
39 240 94
40 241 93
40 242 91
41 243 90
42 244 89
43 245 88
44 246 87
44 246 85
45 247 84
46 248 83
47 249 82
48 249 81
49 250 80
50 250 79
50 251 77
51 251 76
52 252 75
53 252 74
54 253 73
55 253 72
56 253 71
57 254 70
58 254 69
59 254 68
60 254 67
61 254 66
62 254 65
63 254 64
64 254 63
65 254 62
66 254 61
67 254 60
68 254 59
69 254 58
70 254 57
71 253 56
72 253 55
73 253 54
74 252 53
75 252 52
76 251 51
77 251 50
79 250 50
80 250 49
81 249 48
82 249 47
83 248 46
84 247 45
85 246 44
87 246 44
88 245 43
89 244 42
90 243 41
91 242 40
93 241 40
94 240 39
95 239 38
96 238 37
97 237 36
99 236 36
100 234 35
101 233 34
102 232 33
104 230 33
105 229 32
106 228 31
108 226 31
109 225 30
110 223 29
112 222 29
113 220 28
114 219 27
116 217 27
117 215 26
118 214 25
120 212 25
121 210 24
122 209 23
124 207 23
125 205 22
127 203 22
128 201 21
129 199 20
131 197 20
132 195 19
134 193 19
135 191 18
137 189 18
138 187 17
140 185 17
141 183 16
143 180 16
144 178 15
146 176 15
147 174 14
149 171 14
150 169 13
152 167 13
153 164 12
155 162 12
156 159 11
158 157 11
160 154 11
161 152 10
163 149 10
164 147 9
166 144 9
168 142 9
169 139 8
171 136 8
172 134 7
174 131 7
176 128 7
177 126 6
179 123 6
181 120 6
182 117 5
184 115 5
186 112 5
188 109 5
189 106 4
191 103 4
193 100 4
195 97 4
196 95 3
198 92 3
200 89 3
202 86 3
203 83 2
205 80 2
207 77 2
209 74 2
211 71 2
212 68 1
214 65 1
216 62 1
218 59 1
220 56 1
222 53 1
224 49 1
225 46 0
227 43 0
229 40 0
231 37 0
233 34 0
235 31 0
237 28 0
239 25 0
241 21 0
243 18 0
245 15 0
247 12 0
249 9 0
251 6 0
253 3 0
255 0 0
0 0 255
0 3 253
0 6 251
0 9 249
0 12 247
0 15 245
0 18 243
0 21 241
0 25 239
0 28 237
0 31 235
0 34 233
0 37 231
0 40 229
0 43 227
0 46 225
1 49 224
1 53 222
1 56 220
1 59 218
1 62 216
1 65 214
1 68 212
2 71 211
2 74 209
2 77 207
2 80 205
2 83 203
3 86 202
3 89 200
3 92 198
3 95 196
4 97 195
4 100 193
4 103 191
4 106 189
5 109 188
5 112 186
5 115 184
5 117 182
6 120 181
6 123 179
6 126 177
7 128 176
7 131 174
7 134 172
8 136 171
8 139 169
9 142 168
9 144 166
9 147 164
10 149 163
10 152 161
11 154 160
11 157 158
11 159 156
12 162 155
12 164 153
13 167 152
13 169 150
14 171 149
14 174 147
15 176 146
15 178 144
16 180 143
16 183 141
17 185 140
17 187 138
18 189 137
18 191 135
19 193 134
19 195 132
20 197 131
20 199 129
21 201 128
22 203 127
22 205 125
23 207 124
23 209 122
24 210 121
25 212 120
25 214 118
26 215 117
27 217 116
27 219 114
28 220 113
29 222 112
29 223 110
30 225 109
31 226 108
31 228 106
32 229 105
33 230 104
33 232 102
34 233 101
35 234 100
36 236 99
36 237 97
37 238 96
38 239 95
39 240 94
40 241 93
40 242 91
41 243 90
42 244 89
43 245 88
44 246 87
44 246 85
45 247 84
46 248 83
47 249 82
48 249 81
49 250 80
50 250 79
50 251 77
51 251 76
52 252 75
53 252 74
54 253 73
55 253 72
56 253 71
57 254 70
58 254 69
59 254 68
60 254 67
61 254 66
62 254 65
63 254 64
64 254 63
65 254 62
66 254 61
67 254 60
68 254 59
69 254 58
70 254 57
71 253 56
72 253 55
73 253 54
74 252 53
75 252 52
76 251 51
77 251 50
79 250 50
80 250 49
81 249 48
82 249 47
83 248 46
84 247 45
85 246 44
87 246 44
88 245 43
89 244 42
90 243 41
91 242 40
93 241 40
94 240 39
95 239 38
96 238 37
97 237 36
99 236 36
100 234 35
101 233 34
102 232 33
104 230 33
105 229 32
106 228 31
108 226 31
109 225 30
110 223 29
112 222 29
113 220 28
114 219 27
116 217 27
117 215 26
118 214 25
120 212 25
121 210 24
122 209 23
124 207 23
125 205 22
127 203 22
128 201 21
129 199 20
131 197 20
132 195 19
134 193 19
135 191 18
137 189 18
138 187 17
140 185 17
141 183 16
143 180 16
144 178 15
146 176 15
147 174 14
149 171 14
150 169 13
152 167 13
153 164 12
155 162 12
156 159 11
158 157 11
160 154 11
161 152 10
163 149 10
164 147 9
166 144 9
168 142 9
169 139 8
171 136 8
172 134 7
174 131 7
176 128 7
177 126 6
179 123 6
181 120 6
182 117 5
184 115 5
186 112 5
188 109 5
189 106 4
191 103 4
193 100 4
195 97 4
196 95 3
198 92 3
200 89 3
202 86 3
203 83 2
205 80 2
207 77 2
209 74 2
211 71 2
212 68 1
214 65 1
216 62 1
218 59 1
220 56 1
222 53 1
224 49 1
225 46 0
227 43 0
229 40 0
231 37 0
233 34 0
235 31 0
237 28 0
239 25 0
241 21 0
243 18 0
245 15 0
247 12 0
249 9 0
251 6 0
253 3 0
255 0 0
0 0 255
0 3 253
0 6 251
0 9 249
0 12 247
0 15 245
0 18 243
0 21 241
0 25 239
0 28 237
0 31 235
0 34 233
0 37 231
0 40 229
0 43 227
0 46 225
1 49 224
1 53 222
1 56 220
1 59 218
1 62 216
1 65 214
1 68 212
2 71 211
2 74 209
2 77 207
2 80 205
2 83 203
3 86 202
3 89 200
3 92 198
3 95 196
4 97 195
4 100 193
4 103 191
4 106 189
5 109 188
5 112 186
5 115 184
5 117 182
6 120 181
6 123 179
6 126 177
7 128 176
7 131 174
7 134 172
8 136 171
8 139 169
9 142 168
9 144 166
9 147 164
10 149 163
10 152 161
11 154 160
11 157 158
11 159 156
12 162 155
12 164 153
13 167 152
13 169 150
14 171 149
14 174 147
15 176 146
15 178 144
16 180 143
16 183 141
17 185 140
17 187 138
18 189 137
18 191 135
19 193 134
19 195 132
20 197 131
20 199 129
21 201 128
22 203 127
22 205 125
23 207 124
23 209 122
24 210 121
25 212 120
25 214 118
26 215 117
27 217 116
27 219 114
28 220 113
29 222 112
29 223 110
30 225 109
31 226 108
31 228 106
32 229 105
33 230 104
33 232 102
34 233 101
35 234 100
36 236 99
36 237 97
37 238 96
38 239 95
39 240 94
40 241 93
40 242 91
41 243 90
42 244 89
43 245 88
44 246 87
44 246 85
45 247 84
46 248 83
47 249 82
48 249 81
49 250 80
50 250 79
50 251 77
51 251 76
52 252 75
53 252 74
54 253 73
55 253 72
56 253 71
57 254 70
58 254 69
59 254 68
60 254 67
61 254 66
62 254 65
63 254 64
64 254 63
65 254 62
66 254 61
67 254 60
68 254 59
69 254 58
70 254 57
71 253 56
72 253 55
73 253 54
74 252 53
75 252 52
76 251 51
77 251 50
79 250 50
80 250 49
81 249 48
82 249 47
83 248 46
84 247 45
85 246 44
87 246 44
88 245 43
89 244 42
90 243 41
91 242 40
93 241 40
94 240 39
95 239 38
96 238 37
97 237 36
99 236 36
100 234 35
101 233 34
102 232 33
104 230 33
105 229 32
106 228 31
108 226 31
109 225 30
110 223 29
112 222 29
113 220 28
114 219 27
116 217 27
117 215 26
118 214 25
120 212 25
121 210 24
122 209 23
124 207 23
125 205 22
127 203 22
128 201 21
129 199 20
131 197 20
132 195 19
134 193 19
135 191 18
137 189 18
138 187 17
140 185 17
141 183 16
143 180 16
144 178 15
146 176 15
147 174 14
149 171 14
150 169 13
152 167 13
153 164 12
155 162 12
156 159 11
158 157 11
160 154 11
161 152 10
163 149 10
164 147 9
166 144 9
168 142 9
169 139 8
171 136 8
172 134 7
174 131 7
176 128 7
177 126 6
179 123 6
181 120 6
182 117 5
184 115 5
186 112 5
188 109 5
189 106 4
191 103 4
193 100 4
195 97 4
196 95 3
198 92 3
200 89 3
202 86 3
203 83 2
205 80 2
207 77 2
209 74 2
211 71 2
212 68 1
214 65 1
216 62 1
218 59 1
220 56 1
222 53 1
224 49 1
225 46 0
227 43 0
229 40 0
231 37 0
233 34 0
235 31 0
237 28 0
239 25 0
241 21 0
243 18 0
245 15 0
247 12 0
249 9 0
251 6 0
253 3 0
255 0 0
0 0 255
0 3 253
0 6 251
0 9 249
0 12 247
0 15 245
0 18 243
0 21 241
0 25 239
0 28 237
0 31 235
0 34 233
0 37 231
0 40 229
0 43 227
0 46 225
1 49 224
1 53 222
1 56 220
1 59 218
1 62 216
1 65 214
1 68 212
2 71 211
2 74 209
2 77 207
2 80 205
2 83 203
3 86 202
3 89 200
3 92 198
3 95 196
4 97 195
4 100 193
4 103 191
4 106 189
5 109 188
5 112 186
5 115 184
5 117 182
6 120 181
6 123 179
6 126 177
7 128 176
7 131 174
7 134 172
8 136 171
8 139 169
9 142 168
9 144 166
9 147 164
10 149 163
10 152 161
11 154 160
11 157 158
11 159 156
12 162 155
12 164 153
13 167 152
13 169 150
14 171 149
14 174 147
15 176 146
15 178 144
16 180 143
16 183 141
17 185 140
17 187 138
18 189 137
18 191 135
19 193 134
19 195 132
20 197 131
20 199 129
21 201 128
22 203 127
22 205 125
23 207 124
23 209 122
24 210 121
25 212 120
25 214 118
26 215 117
27 217 116
27 219 114
28 220 113
29 222 112
29 223 110
30 225 109
31 226 108
31 228 106
32 229 105
33 230 104
33 232 102
34 233 101
35 234 100
36 236 99
36 237 97
37 238 96
38 239 95
39 240 94
40 241 93
40 242 91
41 243 90
42 244 89
43 245 88
44 246 87
44 246 85
45 247 84
46 248 83
47 249 82
48 249 81
49 250 80
50 250 79
50 251 77
51 251 76
52 252 75
53 252 74
54 253 73
55 253 72
56 253 71
57 254 70
58 254 69
59 254 68
60 254 67
61 254 66
62 254 65
63 254 64
64 254 63
65 254 62
66 254 61
67 254 60
68 254 59
69 254 58
70 254 57
71 253 56
72 253 55
73 253 54
74 252 53
75 252 52
76 251 51
77 251 50
79 250 50
80 250 49
81 249 48
82 249 47
83 248 46
84 247 45
85 246 44
87 246 44
88 245 43
89 244 42
90 243 41
91 242 40
93 241 40
94 240 39
95 239 38
96 238 37
97 237 36
99 236 36
100 234 35
101 233 34
102 232 33
104 230 33
105 229 32
106 228 31
108 226 31
109 225 30
110 223 29
112 222 29
113 220 28
114 219 27
116 217 27
117 215 26
118 214 25
120 212 25
121 210 24
122 209 23
124 207 23
125 205 22
127 203 22
128 201 21
129 199 20
131 197 20
132 195 19
134 193 19
135 191 18
137 189 18
138 187 17
140 185 17
141 183 16
143 180 16
144 178 15
146 176 15
147 174 14
149 171 14
150 169 13
152 167 13
153 164 12
155 162 12
156 159 11
158 157 11
160 154 11
161 152 10
163 149 10
164 147 9
166 144 9
168 142 9
169 139 8
171 136 8
172 134 7
174 131 7
176 128 7
177 126 6
179 123 6
181 120 6
182 117 5
184 115 5
186 112 5
188 109 5
189 106 4
191 103 4
193 100 4
195 97 4
196 95 3
198 92 3
200 89 3
202 86 3
203 83 2
205 80 2
207 77 2
209 74 2
211 71 2
212 68 1
214 65 1
216 62 1
218 59 1
220 56 1
222 53 1
224 49 1
225 46 0
227 43 0
229 40 0
231 37 0
233 34 0
235 31 0
237 28 0
239 25 0
241 21 0
243 18 0
245 15 0
247 12 0
249 9 0
251 6 0
253 3 0
255 0 0
0 0 255
0 3 253
0 6 251
0 9 249
0 12 247
0 15 245
0 18 243
0 21 241
0 25 239
0 28 237
0 31 235
0 34 233
0 37 231
0 40 229
0 43 227
0 46 225
1 49 224
1 53 222
1 56 220
1 59 218
1 62 216
1 65 214
1 68 212
2 71 211
2 74 209
2 77 207
2 80 205
2 83 203
3 86 202
3 89 200
3 92 198
3 95 196
4 97 195
4 100 193
4 103 191
4 106 189
5 109 188
5 112 186
5 115 184
5 117 182
6 120 181
6 123 179
6 126 177
7 128 176
7 131 174
7 134 172
8 136 171
8 139 169
9 142 168
9 144 166
9 147 164
10 149 163
10 152 161
11 154 160
11 157 158
11 159 156
12 162 155
12 164 153
13 167 152
13 169 150
14 171 149
14 174 147
15 176 146
15 178 144
16 180 143
16 183 141
17 185 140
17 187 138
18 189 137
18 191 135
19 193 134
19 195 132
20 197 131
20 199 129
21 201 128
22 203 127
22 205 125
23 207 124
23 209 122
24 210 121
25 212 120
25 214 118
26 215 117
27 217 116
27 219 114
28 220 113
29 222 112
29 223 110
30 225 109
31 226 108
31 228 106
32 229 105
33 230 104
33 232 102
34 233 101
35 234 100
36 236 99
36 237 97
37 238 96
38 239 95
39 240 94
40 241 93
40 242 91
41 243 90
42 244 89
43 245 88
44 246 87
44 246 85
45 247 84
46 248 83
47 249 82
48 249 81
49 250 80
50 250 79
50 251 77
51 251 76
52 252 75
53 252 74
54 253 73
55 253 72
56 253 71
57 254 70
58 254 69
59 254 68
60 254 67
61 254 66
62 254 65
63 254 64
64 254 63
65 254 62
66 254 61
67 254 60
68 254 59
69 254 58
70 254 57
71 253 56
72 253 55
73 253 54
74 252 53
75 252 52
76 251 51
77 251 50
79 250 50
80 250 49
81 249 48
82 249 47
83 248 46
84 247 45
85 246 44
87 246 44
88 245 43
89 244 42
90 243 41
91 242 40
93 241 40
94 240 39
95 239 38
96 238 37
97 237 36
99 236 36
100 234 35
101 233 34
102 232 33
104 230 33
105 229 32
106 228 31
108 226 31
109 225 30
110 223 29
112 222 29
113 220 28
114 219 27
116 217 27
117 215 26
118 214 25
120 212 25
121 210 24
122 209 23
124 207 23
125 205 22
127 203 22
128 201 21
129 199 20
131 197 20
132 195 19
134 193 19
135 191 18
137 189 18
138 187 17
140 185 17
141 183 16
143 180 16
144 178 15
146 176 15
147 174 14
149 171 14
150 169 13
152 167 13
153 164 12
155 162 12
156 159 11
158 157 11
160 154 11
161 152 10
163 149 10
164 147 9
166 144 9
168 142 9
169 139 8
171 136 8
172 134 7
174 131 7
176 128 7
177 126 6
179 123 6
181 120 6
182 117 5
184 115 5
186 112 5
188 109 5
189 106 4
191 103 4
193 100 4
195 97 4
196 95 3
198 92 3
200 89 3
202 86 3
203 83 2
205 80 2
207 77 2
209 74 2
211 71 2
212 68 1
214 65 1
216 62 1
218 59 1
220 56 1
222 53 1
224 49 1
225 46 0
227 43 0
229 40 0
231 37 0
233 34 0
235 31 0
237 28 0
239 25 0
241 21 0
243 18 0
245 15 0
247 12 0
249 9 0
251 6 0
253 3 0
255 0 0
0 0 255
0 3 253
0 6 251
0 9 249
0 12 247
0 15 245
0 18 243
0 21 241
0 25 239
0 28 237
0 31 235
0 34 233
0 37 231
0 40 229
0 43 227
0 46 225
1 49 224
1 53 222
1 56 220
1 59 218
1 62 216
1 65 214
1 68 212
2 71 211
2 74 209
2 77 207
2 80 205
2 83 203
3 86 202
3 89 200
3 92 198
3 95 196
4 97 195
4 100 193
4 103 191
4 106 189
5 109 188
5 112 186
5 115 184
5 117 182
6 120 181
6 123 179
6 126 177
7 128 176
7 131 174
7 134 172
8 136 171
8 139 169
9 142 168
9 144 166
9 147 164
10 149 163
10 152 161
11 154 160
11 157 158
11 159 156
12 162 155
12 164 153
13 167 152
13 169 150
14 171 149
14 174 147
15 176 146
15 178 144
16 180 143
16 183 141
17 185 140
17 187 138
18 189 137
18 191 135
19 193 134
19 195 132
20 197 131
20 199 129
21 201 128
22 203 127
22 205 125
23 207 124
23 209 122
24 210 121
25 212 120
25 214 118
26 215 117
27 217 116
27 219 114
28 220 113
29 222 112
29 223 110
30 225 109
31 226 108
31 228 106
32 229 105
33 230 104
33 232 102
34 233 101
35 234 100
36 236 99
36 237 97
37 238 96
38 239 95
39 240 94
40 241 93
40 242 91
41 243 90
42 244 89
43 245 88
44 246 87
44 246 85
45 247 84
46 248 83
47 249 82
48 249 81
49 250 80
50 250 79
50 251 77
51 251 76
52 252 75
53 252 74
54 253 73
55 253 72
56 253 71
57 254 70
58 254 69
59 254 68
60 254 67
61 254 66
62 254 65
63 254 64
64 254 63
65 254 62
66 254 61
67 254 60
68 254 59
69 254 58
70 254 57
71 253 56
72 253 55
73 253 54
74 252 53
75 252 52
76 251 51
77 251 50
79 250 50
80 250 49
81 249 48
82 249 47
83 248 46
84 247 45
85 246 44
87 246 44
88 245 43
89 244 42
90 243 41
91 242 40
93 241 40
94 240 39
95 239 38
96 238 37
97 237 36
99 236 36
100 234 35
101 233 34
102 232 33
104 230 33
105 229 32
106 228 31
108 226 31
109 225 30
110 223 29
112 222 29
113 220 28
114 219 27
116 217 27
117 215 26
118 214 25
120 212 25
121 210 24
122 209 23
124 207 23
125 205 22
127 203 22
128 201 21
129 199 20
131 197 20
132 195 19
134 193 19
135 191 18
137 189 18
138 187 17
140 185 17
141 183 16
143 180 16
144 178 15
146 176 15
147 174 14
149 171 14
150 169 13
152 167 13
153 164 12
155 162 12
156 159 11
158 157 11
160 154 11
161 152 10
163 149 10
164 147 9
166 144 9
168 142 9
169 139 8
171 136 8
172 134 7
174 131 7
176 128 7
177 126 6
179 123 6
181 120 6
182 117 5
184 115 5
186 112 5
188 109 5
189 106 4
191 103 4
193 100 4
195 97 4
196 95 3
198 92 3
200 89 3
202 86 3
203 83 2
205 80 2
207 77 2
209 74 2
211 71 2
212 68 1
214 65 1
216 62 1
218 59 1
220 56 1
222 53 1
224 49 1
225 46 0
227 43 0
229 40 0
231 37 0
233 34 0
235 31 0
237 28 0
239 25 0
241 21 0
243 18 0
245 15 0
247 12 0
249 9 0
251 6 0
253 3 0
255 0 0
0 0 255
0 3 253
0 6 251
0 9 249
0 12 247
0 15 245
0 18 243
0 21 241
0 25 239
0 28 237
0 31 235
0 34 233
0 37 231
0 40 229
0 43 227
0 46 225
1 49 224
1 53 222
1 56 220
1 59 218
1 62 216
1 65 214
1 68 212
2 71 211
2 74 209
2 77 207
2 80 205
2 83 203
3 86 202
3 89 200
3 92 198
3 95 196
4 97 195
4 100 193
4 103 191
4 106 189
5 109 188
5 112 186
5 115 184
5 117 182
6 120 181
6 123 179
6 126 177
7 128 176
7 131 174
7 134 172
8 136 171
8 139 169
9 142 168
9 144 166
9 147 164
10 149 163
10 152 161
11 154 160
11 157 158
11 159 156
12 162 155
12 164 153
13 167 152
13 169 150
14 171 149
14 174 147
15 176 146
15 178 144
16 180 143
16 183 141
17 185 140
17 187 138
18 189 137
18 191 135
19 193 134
19 195 132
20 197 131
20 199 129
21 201 128
22 203 127
22 205 125
23 207 124
23 209 122
24 210 121
25 212 120
25 214 118
26 215 117
27 217 116
27 219 114
28 220 113
29 222 112
29 223 110
30 225 109
31 226 108
31 228 106
32 229 105
33 230 104
33 232 102
34 233 101
35 234 100
36 236 99
36 237 97
37 238 96
38 239 95
39 240 94
40 241 93
40 242 91
41 243 90
42 244 89
43 245 88
44 246 87
44 246 85
45 247 84
46 248 83
47 249 82
48 249 81
49 250 80
50 250 79
50 251 77
51 251 76
52 252 75
53 252 74
54 253 73
55 253 72
56 253 71
57 254 70
58 254 69
59 254 68
60 254 67
61 254 66
62 254 65
63 254 64
64 254 63
65 254 62
66 254 61
67 254 60
68 254 59
69 254 58
70 254 57
71 253 56
72 253 55
73 253 54
74 252 53
75 252 52
76 251 51
77 251 50
79 250 50
80 250 49
81 249 48
82 249 47
83 248 46
84 247 45
85 246 44
87 246 44
88 245 43
89 244 42
90 243 41
91 242 40
93 241 40
94 240 39
95 239 38
96 238 37
97 237 36
99 236 36
100 234 35
101 233 34
102 232 33
104 230 33
105 229 32
106 228 31
108 226 31
109 225 30
110 223 29
112 222 29
113 220 28
114 219 27
116 217 27
117 215 26
118 214 25
120 212 25
121 210 24
122 209 23
124 207 23
125 205 22
127 203 22
128 201 21
129 199 20
131 197 20
132 195 19
134 193 19
135 191 18
137 189 18
138 187 17
140 185 17
141 183 16
143 180 16
144 178 15
146 176 15
147 174 14
149 171 14
150 169 13
152 167 13
153 164 12
155 162 12
156 159 11
158 157 11
160 154 11
161 152 10
163 149 10
164 147 9
166 144 9
168 142 9
169 139 8
171 136 8
172 134 7
174 131 7
176 128 7
177 126 6
179 123 6
181 120 6
182 117 5
184 115 5
186 112 5
188 109 5
189 106 4
191 103 4
193 100 4
195 97 4
196 95 3
198 92 3
200 89 3
202 86 3
203 83 2
205 80 2
207 77 2
209 74 2
211 71 2
212 68 1
214 65 1
216 62 1
218 59 1
220 56 1
222 53 1
224 49 1
225 46 0
227 43 0
229 40 0
231 37 0
233 34 0
235 31 0
237 28 0
239 25 0
241 21 0
243 18 0
245 15 0
247 12 0
249 9 0
251 6 0
253 3 0
255 0 0
0 0 255
0 3 253
0 6 251
0 9 249
0 12 247
0 15 245
0 18 243
0 21 241
0 25 239
0 28 237
0 31 235
0 34 233
0 37 231
0 40 229
0 43 227
0 46 225
1 49 224
1 53 222
1 56 220
1 59 218
1 62 216
1 65 214
1 68 212
2 71 211
2 74 209
2 77 207
2 80 205
2 83 203
3 86 202
3 89 200
3 92 198
3 95 196
4 97 195
4 100 193
4 103 191
4 106 189
5 109 188
5 112 186
5 115 184
5 117 182
6 120 181
6 123 179
6 126 177
7 128 176
7 131 174
7 134 172
8 136 171
8 139 169
9 142 168
9 144 166
9 147 164
10 149 163
10 152 161
11 154 160
11 157 158
11 159 156
12 162 155
12 164 153
13 167 152
13 169 150
14 171 149
14 174 147
15 176 146
15 178 144
16 180 143
16 183 141
17 185 140
17 187 138
18 189 137
18 191 135
19 193 134
19 195 132
20 197 131
20 199 129
21 201 128
22 203 127
22 205 125
23 207 124
23 209 122
24 210 121
25 212 120
25 214 118
26 215 117
27 217 116
27 219 114
28 220 113
29 222 112
29 223 110
30 225 109
31 226 108
31 228 106
32 229 105
33 230 104
33 232 102
34 233 101
35 234 100
36 236 99
36 237 97
37 238 96
38 239 95
39 240 94
40 241 93
40 242 91
41 243 90
42 244 89
43 245 88
44 246 87
44 246 85
45 247 84
46 248 83
47 249 82
48 249 81
49 250 80
50 250 79
50 251 77
51 251 76
52 252 75
53 252 74
54 253 73
55 253 72
56 253 71
57 254 70
58 254 69
59 254 68
60 254 67
61 254 66
62 254 65
63 254 64
64 254 63
65 254 62
66 254 61
67 254 60
68 254 59
69 254 58
70 254 57
71 253 56
72 253 55
73 253 54
74 252 53
75 252 52
76 251 51
77 251 50
79 250 50
80 250 49
81 249 48
82 249 47
83 248 46
84 247 45
85 246 44
87 246 44
88 245 43
89 244 42
90 243 41
91 242 40
93 241 40
94 240 39
95 239 38
96 238 37
97 237 36
99 236 36
100 234 35
101 233 34
102 232 33
104 230 33
105 229 32
106 228 31
108 226 31
109 225 30
110 223 29
112 222 29
113 220 28
114 219 27
116 217 27
117 215 26
118 214 25
120 212 25
121 210 24
122 209 23
124 207 23
125 205 22
127 203 22
128 201 21
129 199 20
131 197 20
132 195 19
134 193 19
135 191 18
137 189 18
138 187 17
140 185 17
141 183 16
143 180 16
144 178 15
146 176 15
147 174 14
149 171 14
150 169 13
152 167 13
153 164 12
155 162 12
156 159 11
158 157 11
160 154 11
161 152 10
163 149 10
164 147 9
166 144 9
168 142 9
169 139 8
171 136 8
172 134 7
174 131 7
176 128 7
177 126 6
179 123 6
181 120 6
182 117 5
184 115 5
186 112 5
188 109 5
189 106 4
191 103 4
193 100 4
195 97 4
196 95 3
198 92 3
200 89 3
202 86 3
203 83 2
205 80 2
207 77 2
209 74 2
211 71 2
212 68 1
214 65 1
216 62 1
218 59 1
220 56 1
222 53 1
224 49 1
225 46 0
227 43 0
229 40 0
231 37 0
233 34 0
235 31 0
237 28 0
239 25 0
241 21 0
243 18 0
245 15 0
247 12 0
249 9 0
251 6 0
253 3 0
255 0 0
0 0 255
0 3 253
0 6 251
0 9 249
0 12 247
0 15 245
0 18 243
0 21 241
0 25 239
0 28 237
0 31 235
0 34 233
0 37 231
0 40 229
0 43 227
0 46 225
1 49 224
1 53 222
1 56 220
1 59 218
1 62 216
1 65 214
1 68 212
2 71 211
2 74 209
2 77 207
2 80 205
2 83 203
3 86 202
3 89 200
3 92 198
3 95 196
4 97 195
4 100 193
4 103 191
4 106 189
5 109 188
5 112 186
5 115 184
5 117 182
6 120 181
6 123 179
6 126 177
7 128 176
7 131 174
7 134 172
8 136 171
8 139 169
9 142 168
9 144 166
9 147 164
10 149 163
10 152 161
11 154 160
11 157 158
11 159 156
12 162 155
12 164 153
13 167 152
13 169 150
14 171 149
14 174 147
15 176 146
15 178 144
16 180 143
16 183 141
17 185 140
17 187 138
18 189 137
18 191 135
19 193 134
19 195 132
20 197 131
20 199 129
21 201 128
22 203 127
22 205 125
23 207 124
23 209 122
24 210 121
25 212 120
25 214 118
26 215 117
27 217 116
27 219 114
28 220 113
29 222 112
29 223 110
30 225 109
31 226 108
31 228 106
32 229 105
33 230 104
33 232 102
34 233 101
35 234 100
36 236 99
36 237 97
37 238 96
38 239 95
39 240 94
40 241 93
40 242 91
41 243 90
42 244 89
43 245 88
44 246 87
44 246 85
45 247 84
46 248 83
47 249 82
48 249 81
49 250 80
50 250 79
50 251 77
51 251 76
52 252 75
53 252 74
54 253 73
55 253 72
56 253 71
57 254 70
58 254 69
59 254 68
60 254 67
61 254 66
62 254 65
63 254 64
64 254 63
65 254 62
66 254 61
67 254 60
68 254 59
69 254 58
70 254 57
71 253 56
72 253 55
73 253 54
74 252 53
75 252 52
76 251 51
77 251 50
79 250 50
80 250 49
81 249 48
82 249 47
83 248 46
84 247 45
85 246 44
87 246 44
88 245 43
89 244 42
90 243 41
91 242 40
93 241 40
94 240 39
95 239 38
96 238 37
97 237 36
99 236 36
100 234 35
101 233 34
102 232 33
104 230 33
105 229 32
106 228 31
108 226 31
109 225 30
110 223 29
112 222 29
113 220 28
114 219 27
116 217 27
117 215 26
118 214 25
120 212 25
121 210 24
122 209 23
124 207 23
125 205 22
127 203 22
128 201 21
129 199 20
131 197 20
132 195 19
134 193 19
135 191 18
137 189 18
138 187 17
140 185 17
141 183 16
143 180 16
144 178 15
146 176 15
147 174 14
149 171 14
150 169 13
152 167 13
153 164 12
155 162 12
156 159 11
158 157 11
160 154 11
161 152 10
163 149 10
164 147 9
166 144 9
168 142 9
169 139 8
171 136 8
172 134 7
174 131 7
176 128 7
177 126 6
179 123 6
181 120 6
182 117 5
184 115 5
186 112 5
188 109 5
189 106 4
191 103 4
193 100 4
195 97 4
196 95 3
198 92 3
200 89 3
202 86 3
203 83 2
205 80 2
207 77 2
209 74 2
211 71 2
212 68 1
214 65 1
216 62 1
218 59 1
220 56 1
222 53 1
224 49 1
225 46 0
227 43 0
229 40 0
231 37 0
233 34 0
235 31 0
237 28 0
239 25 0
241 21 0
243 18 0
245 15 0
247 12 0
249 9 0
251 6 0
253 3 0
255 0 0
0 0 255
0 3 253
0 6 251
0 9 249
0 12 247
0 15 245
0 18 243
0 21 241
0 25 239
0 28 237
0 31 235
0 34 233
0 37 231
0 40 229
0 43 227
0 46 225
1 49 224
1 53 222
1 56 220
1 59 218
1 62 216
1 65 214
1 68 212
2 71 211
2 74 209
2 77 207
2 80 205
2 83 203
3 86 202
3 89 200
3 92 198
3 95 196
4 97 195
4 100 193
4 103 191
4 106 189
5 109 188
5 112 186
5 115 184
5 117 182
6 120 181
6 123 179
6 126 177
7 128 176
7 131 174
7 134 172
8 136 171
8 139 169
9 142 168
9 144 166
9 147 164
10 149 163
10 152 161
11 154 160
11 157 158
11 159 156
12 162 155
12 164 153
13 167 152
13 169 150
14 171 149
14 174 147
15 176 146
15 178 144
16 180 143
16 183 141
17 185 140
17 187 138
18 189 137
18 191 135
19 193 134
19 195 132
20 197 131
20 199 129
21 201 128
22 203 127
22 205 125
23 207 124
23 209 122
24 210 121
25 212 120
25 214 118
26 215 117
27 217 116
27 219 114
28 220 113
29 222 112
29 223 110
30 225 109
31 226 108
31 228 106
32 229 105
33 230 104
33 232 102
34 233 101
35 234 100
36 236 99
36 237 97
37 238 96
38 239 95
39 240 94
40 241 93
40 242 91
41 243 90
42 244 89
43 245 88
44 246 87
44 246 85
45 247 84
46 248 83
47 249 82
48 249 81
49 250 80
50 250 79
50 251 77
51 251 76
52 252 75
53 252 74
54 253 73
55 253 72
56 253 71
57 254 70
58 254 69
59 254 68
60 254 67
61 254 66
62 254 65
63 254 64
64 254 63
65 254 62
66 254 61
67 254 60
68 254 59
69 254 58
70 254 57
71 253 56
72 253 55
73 253 54
74 252 53
75 252 52
76 251 51
77 251 50
79 250 50
80 250 49
81 249 48
82 249 47
83 248 46
84 247 45
85 246 44
87 246 44
88 245 43
89 244 42
90 243 41
91 242 40
93 241 40
94 240 39
95 239 38
96 238 37
97 237 36
99 236 36
100 234 35
101 233 34
102 232 33
104 230 33
105 229 32
106 228 31
108 226 31
109 225 30
110 223 29
112 222 29
113 220 28
114 219 27
116 217 27
117 215 26
118 214 25
120 212 25
121 210 24
122 209 23
124 207 23
125 205 22
127 203 22
128 201 21
129 199 20
131 197 20
132 195 19
134 193 19
135 191 18
137 189 18
138 187 17
140 185 17
141 183 16
143 180 16
144 178 15
146 176 15
147 174 14
149 171 14
150 169 13
152 167 13
153 164 12
155 162 12
156 159 11
158 157 11
160 154 11
161 152 10
163 149 10
164 147 9
166 144 9
168 142 9
169 139 8
171 136 8
172 134 7
174 131 7
176 128 7
177 126 6
179 123 6
181 120 6
182 117 5
184 115 5
186 112 5
188 109 5
189 106 4
191 103 4
193 100 4
195 97 4
196 95 3
198 92 3
200 89 3
202 86 3
203 83 2
205 80 2
207 77 2
209 74 2
211 71 2
212 68 1
214 65 1
216 62 1
218 59 1
220 56 1
222 53 1
224 49 1
225 46 0
227 43 0
229 40 0
231 37 0
233 34 0
235 31 0
237 28 0
239 25 0
241 21 0
243 18 0
245 15 0
247 12 0
249 9 0
251 6 0
253 3 0
255 0 0
0 0 255
0 3 253
0 6 251
0 9 249
0 12 247
0 15 245
0 18 243
0 21 241
0 25 239
0 28 237
0 31 235
0 34 233
0 37 231
0 40 229
0 43 227
0 46 225
1 49 224
1 53 222
1 56 220
1 59 218
1 62 216
1 65 214
1 68 212
2 71 211
2 74 209
2 77 207
2 80 205
2 83 203
3 86 202
3 89 200
3 92 198
3 95 196
4 97 195
4 100 193
4 103 191
4 106 189
5 109 188
5 112 186
5 115 184
5 117 182
6 120 181
6 123 179
6 126 177
7 128 176
7 131 174
7 134 172
8 136 171
8 139 169
9 142 168
9 144 166
9 147 164
10 149 163
10 152 161
11 154 160
11 157 158
11 159 156
12 162 155
12 164 153
13 167 152
13 169 150
14 171 149
14 174 147
15 176 146
15 178 144
16 180 143
16 183 141
17 185 140
17 187 138
18 189 137
18 191 135
19 193 134
19 195 132
20 197 131
20 199 129
21 201 128
22 203 127
22 205 125
23 207 124
23 209 122
24 210 121
25 212 120
25 214 118
26 215 117
27 217 116
27 219 114
28 220 113
29 222 112
29 223 110
30 225 109
31 226 108
31 228 106
32 229 105
33 230 104
33 232 102
34 233 101
35 234 100
36 236 99
36 237 97
37 238 96
38 239 95
39 240 94
40 241 93
40 242 91
41 243 90
42 244 89
43 245 88
44 246 87
44 246 85
45 247 84
46 248 83
47 249 82
48 249 81
49 250 80
50 250 79
50 251 77
51 251 76
52 252 75
53 252 74
54 253 73
55 253 72
56 253 71
57 254 70
58 254 69
59 254 68
60 254 67
61 254 66
62 254 65
63 254 64
64 254 63
65 254 62
66 254 61
67 254 60
68 254 59
69 254 58
70 254 57
71 253 56
72 253 55
73 253 54
74 252 53
75 252 52
76 251 51
77 251 50
79 250 50
80 250 49
81 249 48
82 249 47
83 248 46
84 247 45
85 246 44
87 246 44
88 245 43
89 244 42
90 243 41
91 242 40
93 241 40
94 240 39
95 239 38
96 238 37
97 237 36
99 236 36
100 234 35
101 233 34
102 232 33
104 230 33
105 229 32
106 228 31
108 226 31
109 225 30
110 223 29
112 222 29
113 220 28
114 219 27
116 217 27
117 215 26
118 214 25
120 212 25
121 210 24
122 209 23
124 207 23
125 205 22
127 203 22
128 201 21
129 199 20
131 197 20
132 195 19
134 193 19
135 191 18
137 189 18
138 187 17
140 185 17
141 183 16
143 180 16
144 178 15
146 176 15
147 174 14
149 171 14
150 169 13
152 167 13
153 164 12
155 162 12
156 159 11
158 157 11
160 154 11
161 152 10
163 149 10
164 147 9
166 144 9
168 142 9
169 139 8
171 136 8
172 134 7
174 131 7
176 128 7
177 126 6
179 123 6
181 120 6
182 117 5
184 115 5
186 112 5
188 109 5
189 106 4
191 103 4
193 100 4
195 97 4
196 95 3
198 92 3
200 89 3
202 86 3
203 83 2
205 80 2
207 77 2
209 74 2
211 71 2
212 68 1
214 65 1
216 62 1
218 59 1
220 56 1
222 53 1
224 49 1
225 46 0
227 43 0
229 40 0
231 37 0
233 34 0
235 31 0
237 28 0
239 25 0
241 21 0
243 18 0
245 15 0
247 12 0
249 9 0
251 6 0
253 3 0
255 0 0
0 0 255
0 3 253
0 6 251
0 9 249
0 12 247
0 15 245
0 18 243
0 21 241
0 25 239
0 28 237
0 31 235
0 34 233
0 37 231
0 40 229
0 43 227
0 46 225
1 49 224
1 53 222
1 56 220
1 59 218
1 62 216
1 65 214
1 68 212
2 71 211
2 74 209
2 77 207
2 80 205
2 83 203
3 86 202
3 89 200
3 92 198
3 95 196
4 97 195
4 100 193
4 103 191
4 106 189
5 109 188
5 112 186
5 115 184
5 117 182
6 120 181
6 123 179
6 126 177
7 128 176
7 131 174
7 134 172
8 136 171
8 139 169
9 142 168
9 144 166
9 147 164
10 149 163
10 152 161
11 154 160
11 157 158
11 159 156
12 162 155
12 164 153
13 167 152
13 169 150
14 171 149
14 174 147
15 176 146
15 178 144
16 180 143
16 183 141
17 185 140
17 187 138
18 189 137
18 191 135
19 193 134
19 195 132
20 197 131
20 199 129
21 201 128
22 203 127
22 205 125
23 207 124
23 209 122
24 210 121
25 212 120
25 214 118
26 215 117
27 217 116
27 219 114
28 220 113
29 222 112
29 223 110
30 225 109
31 226 108
31 228 106
32 229 105
33 230 104
33 232 102
34 233 101
35 234 100
36 236 99
36 237 97
37 238 96
38 239 95
39 240 94
40 241 93
40 242 91
41 243 90
42 244 89
43 245 88
44 246 87
44 246 85
45 247 84
46 248 83
47 249 82
48 249 81
49 250 80
50 250 79
50 251 77
51 251 76
52 252 75
53 252 74
54 253 73
55 253 72
56 253 71
57 254 70
58 254 69
59 254 68
60 254 67
61 254 66
62 254 65
63 254 64
64 254 63
65 254 62
66 254 61
67 254 60
68 254 59
69 254 58
70 254 57
71 253 56
72 253 55
73 253 54
74 252 53
75 252 52
76 251 51
77 251 50
79 250 50
80 250 49
81 249 48
82 249 47
83 248 46
84 247 45
85 246 44
87 246 44
88 245 43
89 244 42
90 243 41
91 242 40
93 241 40
94 240 39
95 239 38
96 238 37
97 237 36
99 236 36
100 234 35
101 233 34
102 232 33
104 230 33
105 229 32
106 228 31
108 226 31
109 225 30
110 223 29
112 222 29
113 220 28
114 219 27
116 217 27
117 215 26
118 214 25
120 212 25
121 210 24
122 209 23
124 207 23
125 205 22
127 203 22
128 201 21
129 199 20
131 197 20
132 195 19
134 193 19
135 191 18
137 189 18
138 187 17
140 185 17
141 183 16
143 180 16
144 178 15
146 176 15
147 174 14
149 171 14
150 169 13
152 167 13
153 164 12
155 162 12
156 159 11
158 157 11
160 154 11
161 152 10
163 149 10
164 147 9
166 144 9
168 142 9
169 139 8
171 136 8
172 134 7
174 131 7
176 128 7
177 126 6
179 123 6
181 120 6
182 117 5
184 115 5
186 112 5
188 109 5
189 106 4
191 103 4
193 100 4
195 97 4
196 95 3
198 92 3
200 89 3
202 86 3
203 83 2
205 80 2
207 77 2
209 74 2
211 71 2
212 68 1
214 65 1
216 62 1
218 59 1
220 56 1
222 53 1
224 49 1
225 46 0
227 43 0
229 40 0
231 37 0
233 34 0
235 31 0
237 28 0
239 25 0
241 21 0
243 18 0
245 15 0
247 12 0
249 9 0
251 6 0
253 3 0
255 0 0
0 0 255
0 3 253
0 6 251
0 9 249
0 12 247
0 15 245
0 18 243
0 21 241
0 25 239
0 28 237
0 31 235
0 34 233
0 37 231
0 40 229
0 43 227
0 46 225
1 49 224
1 53 222
1 56 220
1 59 218
1 62 216
1 65 214
1 68 212
2 71 211
2 74 209
2 77 207
2 80 205
2 83 203
3 86 202
3 89 200
3 92 198
3 95 196
4 97 195
4 100 193
4 103 191
4 106 189
5 109 188
5 112 186
5 115 184
5 117 182
6 120 181
6 123 179
6 126 177
7 128 176
7 131 174
7 134 172
8 136 171
8 139 169
9 142 168
9 144 166
9 147 164
10 149 163
10 152 161
11 154 160
11 157 158
11 159 156
12 162 155
12 164 153
13 167 152
13 169 150
14 171 149
14 174 147
15 176 146
15 178 144
16 180 143
16 183 141
17 185 140
17 187 138
18 189 137
18 191 135
19 193 134
19 195 132
20 197 131
20 199 129
21 201 128
22 203 127
22 205 125
23 207 124
23 209 122
24 210 121
25 212 120
25 214 118
26 215 117
27 217 116
27 219 114
28 220 113
29 222 112
29 223 110
30 225 109
31 226 108
31 228 106
32 229 105
33 230 104
33 232 102
34 233 101
35 234 100
36 236 99
36 237 97
37 238 96
38 239 95
39 240 94
40 241 93
40 242 91
41 243 90
42 244 89
43 245 88
44 246 87
44 246 85
45 247 84
46 248 83
47 249 82
48 249 81
49 250 80
50 250 79
50 251 77
51 251 76
52 252 75
53 252 74
54 253 73
55 253 72
56 253 71
57 254 70
58 254 69
59 254 68
60 254 67
61 254 66
62 254 65
63 254 64
64 254 63
65 254 62
66 254 61
67 254 60
68 254 59
69 254 58
70 254 57
71 253 56
72 253 55
73 253 54
74 252 53
75 252 52
76 251 51
77 251 50
79 250 50
80 250 49
81 249 48
82 249 47
83 248 46
84 247 45
85 246 44
87 246 44
88 245 43
89 244 42
90 243 41
91 242 40
93 241 40
94 240 39
95 239 38
96 238 37
97 237 36
99 236 36
100 234 35
101 233 34
102 232 33
104 230 33
105 229 32
106 228 31
108 226 31
109 225 30
110 223 29
112 222 29
113 220 28
114 219 27
116 217 27
117 215 26
118 214 25
120 212 25
121 210 24
122 209 23
124 207 23
125 205 22
127 203 22
128 201 21
129 199 20
131 197 20
132 195 19
134 193 19
135 191 18
137 189 18
138 187 17
140 185 17
141 183 16
143 180 16
144 178 15
146 176 15
147 174 14
149 171 14
150 169 13
152 167 13
153 164 12
155 162 12
156 159 11
158 157 11
160 154 11
161 152 10
163 149 10
164 147 9
166 144 9
168 142 9
169 139 8
171 136 8
172 134 7
174 131 7
176 128 7
177 126 6
179 123 6
181 120 6
182 117 5
184 115 5
186 112 5
188 109 5
189 106 4
191 103 4
193 100 4
195 97 4
196 95 3
198 92 3
200 89 3
202 86 3
203 83 2
205 80 2
207 77 2
209 74 2
211 71 2
212 68 1
214 65 1
216 62 1
218 59 1
220 56 1
222 53 1
224 49 1
225 46 0
227 43 0
229 40 0
231 37 0
233 34 0
235 31 0
237 28 0
239 25 0
241 21 0
243 18 0
245 15 0
247 12 0
249 9 0
251 6 0
253 3 0
255 0 0
